<?xml version="1.0" standalone="no"?>
<!DOCTYPE svg PUBLIC "-//W3C//DTD SVG 20010904//EN"
 "http://www.w3.org/TR/2001/REC-SVG-20010904/DTD/svg10.dtd">
<svg version="1.0" xmlns="http://www.w3.org/2000/svg"
 width="514.000000pt" height="500.000000pt" viewBox="0 0 514.000000 500.000000"
 preserveAspectRatio="xMidYMid meet">

<g transform="translate(0.000000,500.000000) scale(0.100000,-0.100000)"
fill="#000000" stroke="none">
<path d="M3808 4683 c23 -2 59 -2 80 0 20 2 1 4 -43 4 -44 0 -61 -2 -37 -4z"/>
<path d="M4220 4687 c0 -3 24 -13 54 -21 30 -9 96 -37 146 -62 109 -55 221
-157 263 -240 99 -196 66 -444 -88 -660 -82 -115 -254 -270 -370 -334 -22 -12
-114 -68 -205 -125 -378 -234 -448 -275 -466 -275 -10 0 -32 -9 -49 -20 -37
-25 -41 -25 -48 -1 -6 26 -122 83 -156 77 -44 -7 -61 -17 -61 -36 0 -12 -20
-30 -54 -49 -67 -39 -78 -52 -74 -88 3 -24 10 -30 53 -44 28 -9 50 -21 50 -28
0 -7 -17 -22 -37 -33 l-38 -22 -20 22 c-17 18 -25 20 -40 12 -11 -6 -20 -18
-20 -26 0 -10 -6 -14 -15 -10 -9 3 -19 -3 -26 -17 -7 -12 -18 -26 -25 -30 -8
-4 -14 -15 -14 -23 0 -21 -27 -46 -83 -78 -26 -15 -63 -43 -82 -62 -19 -18
-44 -34 -55 -34 -11 0 -31 -6 -43 -14 -12 -7 -83 -51 -157 -96 -74 -46 -143
-90 -152 -98 -24 -20 -23 -49 2 -62 18 -10 44 3 188 91 92 57 182 118 200 136
18 18 43 33 55 33 12 0 39 11 59 25 20 14 38 25 40 25 9 0 151 -143 269 -270
151 -163 163 -176 236 -232 59 -45 75 -45 148 -3 64 38 97 78 98 119 1 46 -6
52 -178 135 -114 56 -156 82 -227 145 -48 42 -92 85 -98 95 -5 11 -10 50 -10
88 l0 68 56 34 c30 18 57 31 60 29 6 -7 -33 -116 -56 -153 -11 -18 -18 -39
-15 -47 5 -13 96 -97 136 -126 24 -16 26 -6 34 158 3 69 11 153 17 188 l10 62
72 46 c39 25 78 54 86 65 8 10 74 56 147 101 423 266 487 308 651 435 184 142
322 343 361 522 15 71 14 225 -3 286 -47 179 -201 330 -406 398 -55 18 -120
31 -120 24z m-940 -1847 c0 -33 -15 -38 -46 -16 -19 15 -19 15 1 30 31 24 45
19 45 -14z"/>
<path d="M3668 4673 c12 -2 30 -2 40 0 9 3 -1 5 -23 4 -22 0 -30 -2 -17 -4z"/>
<path d="M3978 4673 c12 -2 30 -2 40 0 9 3 -1 5 -23 4 -22 0 -30 -2 -17 -4z"/>
<path d="M3593 4663 c9 -2 23 -2 30 0 6 3 -1 5 -18 5 -16 0 -22 -2 -12 -5z"/>
<path d="M4063 4663 c9 -2 23 -2 30 0 6 3 -1 5 -18 5 -16 0 -22 -2 -12 -5z"/>
<path d="M3538 4653 c7 -3 16 -2 19 1 4 3 -2 6 -13 5 -11 0 -14 -3 -6 -6z"/>
<path d="M4118 4653 c7 -3 16 -2 19 1 4 3 -2 6 -13 5 -11 0 -14 -3 -6 -6z"/>
<path d="M3488 4643 c7 -3 16 -2 19 1 4 3 -2 6 -13 5 -11 0 -14 -3 -6 -6z"/>
<path d="M3448 4633 c7 -3 16 -2 19 1 4 3 -2 6 -13 5 -11 0 -14 -3 -6 -6z"/>
<path d="M4270 4610 c8 -5 20 -10 25 -10 6 0 3 5 -5 10 -8 5 -19 10 -25 10 -5
0 -3 -5 5 -10z"/>
<path d="M4410 4546 c0 -2 7 -7 16 -10 8 -3 12 -2 9 4 -6 10 -25 14 -25 6z"/>
<path d="M3088 4504 c-38 -19 -68 -37 -68 -39 0 -5 139 62 149 71 14 13 -23
-2 -81 -32z"/>
<path d="M4450 4526 c0 -2 8 -10 18 -17 15 -13 16 -12 3 4 -13 16 -21 21 -21
13z"/>
<path d="M4540 4447 c30 -31 56 -57 58 -57 8 0 -54 66 -83 90 -16 13 -5 -2 25
-33z"/>
<path d="M2880 4379 c-22 -18 -22 -19 -3 -10 12 6 25 16 28 21 9 15 3 12 -25
-11z"/>
<path d="M2829 4343 c-13 -16 -12 -17 4 -4 16 13 21 21 13 21 -2 0 -10 -8 -17
-17z"/>
<path d="M4626 4337 c3 -10 9 -15 12 -12 3 3 0 11 -7 18 -10 9 -11 8 -5 -6z"/>
<path d="M2360 4323 c-191 -19 -457 -79 -618 -139 -108 -40 -290 -132 -335
-170 -16 -13 -32 -24 -35 -24 -4 0 -19 -10 -32 -22 -14 -13 -50 -43 -79 -67
-51 -42 -54 -43 -89 -33 -21 6 -64 28 -97 48 -114 70 -160 94 -185 94 -58 0
-303 -308 -403 -506 -65 -130 -90 -226 -91 -349 -1 -95 2 -117 22 -160 27 -59
59 -95 84 -95 22 0 22 -1 1 -61 -12 -34 -23 -49 -36 -49 -10 0 -33 -6 -51 -14
-53 -22 -76 -82 -83 -214 -7 -132 8 -245 48 -362 16 -47 40 -125 53 -175 47
-178 113 -318 203 -430 44 -54 48 -63 39 -88 -13 -35 7 -57 56 -60 26 -2 57
-20 124 -73 129 -102 184 -135 323 -195 170 -73 174 -78 189 -211 20 -169 72
-298 136 -338 55 -33 113 -22 163 32 19 21 103 178 103 193 0 15 53 121 76
151 27 35 141 103 334 199 161 81 195 105 216 160 35 93 -13 156 -146 190 -54
14 -92 16 -225 10 -244 -10 -322 8 -432 102 -52 44 -67 73 -39 73 8 0 22 7 30
16 21 20 7 48 -62 125 l-50 55 47 65 c66 89 156 185 243 255 156 127 246 224
310 333 l26 44 22 -44 c46 -91 167 -206 192 -181 10 10 32 145 31 195 0 21
-20 48 -80 110 -70 71 -103 120 -91 132 1 2 55 22 118 45 235 85 484 227 530
303 51 82 -1 159 -121 178 -109 17 -127 26 -139 67 -27 98 -10 191 89 497 63
191 77 258 63 294 -7 20 -16 14 -110 -83 -117 -120 -120 -111 -5 18 43 49 83
95 88 103 31 45 -141 75 -325 56z m217 -89 c2 -6 -20 -23 -50 -38 -75 -36
-169 -128 -205 -201 -32 -65 -66 -193 -107 -403 -37 -189 -61 -262 -86 -262
-36 0 -40 39 -19 180 11 73 20 137 20 143 -1 31 -90 -253 -90 -286 0 -75 53
-127 114 -111 28 7 86 75 86 101 0 20 10 17 115 -32 149 -69 209 -85 298 -78
70 5 76 4 87 -16 26 -49 -23 -77 -152 -87 -99 -8 -183 10 -263 56 -29 17 -59
30 -66 30 -8 0 -45 -32 -83 -71 -81 -83 -149 -130 -231 -161 -49 -19 -80 -23
-176 -23 l-116 0 -47 38 c-55 46 -89 109 -107 196 -18 94 -6 354 25 516 14 71
23 131 20 134 -7 7 -163 -103 -251 -178 -256 -220 -531 -616 -663 -956 -72
-186 -120 -458 -107 -602 4 -34 4 -63 2 -63 -2 0 -9 25 -15 56 -9 43 -20 63
-48 89 -28 26 -33 35 -19 35 26 0 21 16 -20 61 l-37 41 37 -7 c20 -4 37 -4 37
0 0 4 -16 27 -36 51 -36 44 -37 44 -10 34 27 -10 46 -6 46 9 0 5 -18 29 -41
55 -22 25 -39 46 -37 46 2 0 18 -4 36 -9 41 -12 42 3 2 49 -37 44 -37 53 -1
45 42 -9 45 6 10 53 l-30 41 50 -1 51 -1 -6 -36 c-7 -44 -9 -174 -5 -261 l3
-65 14 104 c16 115 54 275 84 352 11 27 20 56 20 64 0 8 -31 58 -69 112 -38
54 -67 99 -66 101 2 2 27 -12 57 -32 29 -20 58 -36 65 -36 23 0 14 36 -26 97
-69 106 -69 106 6 62 67 -38 93 -47 93 -31 0 5 -25 48 -55 97 -30 48 -55 90
-55 93 0 3 12 -6 28 -20 38 -35 104 -78 121 -78 23 0 6 51 -44 133 -25 41 -45
77 -45 80 0 3 30 -15 66 -39 69 -46 94 -54 94 -29 0 17 -40 100 -76 157 -14
21 -22 38 -19 38 3 0 31 -17 63 -39 53 -36 102 -59 102 -48 0 11 -41 95 -70
145 -31 53 -28 69 6 31 26 -29 109 -89 123 -89 19 0 12 24 -34 119 -25 51 -45
94 -45 97 0 2 30 -20 67 -51 65 -54 86 -64 97 -47 6 10 -44 119 -72 161 -11
14 -22 34 -25 44 -6 15 0 14 36 -8 23 -14 79 -45 125 -68 45 -23 82 -44 82
-47 0 -3 -26 -35 -58 -71 -98 -113 -105 -121 -169 -217 -35 -51 -84 -134 -109
-185 -45 -89 -88 -197 -81 -204 2 -2 28 36 57 84 76 125 198 292 299 407 89
102 275 271 370 335 52 34 58 36 140 36 71 0 93 -4 124 -22 35 -21 37 -22 37
-3 0 50 57 133 111 161 43 21 62 25 38 6 -27 -20 -59 -80 -59 -109 0 -14 11
-40 25 -56 14 -17 25 -32 25 -35 0 -3 -26 -11 -57 -18 l-57 -13 30 -13 c39
-16 147 -16 188 1 45 19 106 75 122 111 16 39 4 98 -26 130 -22 23 -22 24 -1
18 30 -8 71 -53 78 -84 5 -26 6 -26 57 30 109 120 227 193 305 189 25 -2 46
-8 48 -14z m-515 -141 c29 -26 24 -79 -11 -114 -24 -24 -38 -29 -75 -29 -85 0
-116 72 -57 131 24 24 38 29 77 29 30 0 54 -6 66 -17z m413 -334 c-28 -118
-36 -228 -22 -289 l8 -35 -22 33 c-30 45 -34 105 -15 202 16 76 65 215 73 206
2 -2 -8 -55 -22 -117z m-1100 -276 c0 -171 3 -221 19 -278 24 -92 66 -180 111
-232 l36 -42 -43 -25 c-78 -45 -359 -147 -403 -146 -5 0 58 34 140 75 135 66
251 143 217 145 -7 0 -38 -13 -70 -29 -63 -31 -194 -75 -257 -85 l-40 -6 40
19 c22 11 79 37 126 59 97 44 173 92 147 92 -9 0 -63 -11 -120 -25 -153 -37
-183 -33 -74 11 73 30 156 71 156 78 0 1 -37 -2 -82 -7 -258 -24 -281 -32
-299 -101 -6 -22 -31 -84 -56 -136 -25 -52 -48 -112 -50 -132 -5 -34 -3 -38
23 -45 16 -4 76 -8 134 -7 123 0 212 20 320 72 41 20 79 38 85 41 5 2 -22 -31
-62 -73 -209 -228 -317 -455 -318 -673 0 -57 -3 -103 -8 -103 -4 0 -1 -13 8
-30 22 -43 19 -80 -15 -146 -28 -57 -98 -149 -106 -141 -3 2 16 44 41 93 61
120 61 167 1 63 -24 -41 -65 -97 -91 -125 -51 -54 -52 -56 24 74 29 50 61 118
61 130 0 3 -29 -35 -64 -84 -113 -156 -133 -172 -65 -51 33 60 63 116 66 125
10 29 -56 -39 -99 -101 -21 -32 -43 -55 -49 -52 -15 10 -74 134 -97 205 -35
108 -45 180 -45 300 0 329 135 670 427 1075 117 164 321 425 330 425 1 0 1
-93 1 -207z m1005 -381 c3 -2 -18 -2 -47 0 l-51 5 -52 -59 c-41 -47 -111 -98
-133 -98 -2 0 16 20 40 45 23 25 61 74 83 109 l40 64 58 -31 c31 -16 59 -32
62 -35z m-852 -441 c-199 -214 -304 -423 -315 -626 -8 -152 30 -282 128 -427
73 -108 192 -204 242 -194 33 7 34 -1 2 -63 -41 -83 -105 -121 -202 -121 -77
0 -278 92 -371 169 -35 29 -66 59 -69 67 -3 7 15 37 40 65 25 29 64 88 86 131
22 43 42 79 45 81 2 1 21 -23 41 -53 50 -73 146 -172 220 -225 88 -63 118 -73
59 -21 -112 99 -216 251 -258 376 -73 220 -22 434 159 663 58 74 236 247 253
247 2 0 -25 -31 -60 -69z m-62 -251 c-130 -211 -152 -482 -56 -690 36 -77 12
-51 -32 34 -113 222 -80 454 100 694 39 51 34 38 -12 -38z m812 -970 c65 -24
40 -46 -169 -150 -143 -72 -263 -141 -300 -173 -38 -31 -80 -105 -134 -231
-54 -126 -70 -153 -96 -161 -36 -12 -65 31 -95 140 -25 89 -15 92 33 8 26 -46
48 -82 49 -80 1 1 -9 49 -22 107 -25 109 -32 206 -14 195 5 -3 28 -39 50 -78
38 -70 51 -78 29 -20 -20 53 -37 143 -28 143 6 0 32 -21 60 -47 l50 -47 -24
50 c-50 100 -45 117 28 85 26 -11 42 -15 38 -8 -4 7 -17 27 -30 46 -13 19 -23
38 -23 42 0 13 48 11 110 -6 30 -8 57 -15 59 -15 2 0 -24 20 -57 44 -33 24
-63 49 -66 55 -10 16 36 14 134 -5 45 -8 84 -13 86 -11 2 2 -34 21 -81 42 -85
38 -110 66 -57 64 15 0 86 -6 157 -13 72 -7 131 -12 133 -10 2 1 -21 10 -50
20 -49 16 -51 18 -28 26 35 10 218 2 258 -12z"/>
<path d="M2056 3843 c-27 -18 -74 -41 -105 -51 l-56 -17 53 -3 c40 -2 61 2 87
18 31 19 82 77 74 84 -2 1 -26 -13 -53 -31z"/>
<path d="M1691 3693 c-1 -18 -10 -90 -22 -160 -22 -131 -21 -249 0 -306 11
-28 78 -107 92 -107 4 0 -1 20 -12 45 -26 59 -39 175 -40 365 0 85 -4 164 -9
175 -7 17 -9 15 -9 -12z"/>
<path d="M1959 4061 c-19 -16 -22 -23 -13 -37 16 -27 39 -38 66 -31 37 10 42
34 13 63 -29 29 -36 30 -66 5z"/>
<path d="M1274 3486 c-8 -35 2 -58 23 -54 25 5 25 71 1 76 -12 2 -19 -5 -24
-22z"/>
<path d="M1205 3361 c-9 -30 4 -63 23 -59 12 2 17 14 17 38 0 40 -29 55 -40
21z"/>
<path d="M1314 3359 c-3 -6 -1 -16 5 -22 8 -8 11 -5 11 11 0 24 -5 28 -16 11z"/>
<path d="M1131 3276 c-15 -18 -6 -56 14 -56 18 0 25 36 11 55 -11 15 -13 15
-25 1z"/>
<path d="M1224 3226 c-8 -22 3 -49 19 -43 6 2 12 14 12 27 0 27 -22 39 -31 16z"/>
<path d="M1040 3180 c-6 -12 -8 -30 -5 -40 14 -43 62 -9 51 35 -8 30 -31 33
-46 5z"/>
<path d="M1150 3154 c0 -8 5 -12 10 -9 6 4 8 11 5 16 -9 14 -15 11 -15 -7z"/>
<path d="M891 2956 c-15 -18 -11 -48 6 -53 7 -3 15 7 19 22 8 33 -8 52 -25 31z"/>
<path d="M805 2810 c-9 -28 11 -52 25 -30 6 8 9 21 7 29 -4 23 -25 24 -32 1z"/>
<path d="M774 2676 c-8 -20 13 -56 32 -56 20 0 28 24 14 49 -12 24 -38 28 -46
7z"/>
<path d="M916 2582 c-3 -6 -1 -14 5 -17 15 -10 25 3 12 16 -7 7 -13 7 -17 1z"/>
<path d="M730 2550 c0 -13 5 -20 13 -17 6 2 12 10 12 17 0 7 -6 15 -12 18 -8
2 -13 -5 -13 -18z"/>
<path d="M814 2546 c-4 -10 -2 -22 4 -28 8 -8 13 -7 18 6 4 10 2 22 -4 28 -8
8 -13 7 -18 -6z"/>
<path d="M750 2466 c0 -29 17 -43 33 -27 8 8 9 16 1 28 -17 27 -34 27 -34 -1z"/>
<path d="M860 2435 c0 -8 5 -15 10 -15 6 0 10 7 10 15 0 8 -4 15 -10 15 -5 0
-10 -7 -10 -15z"/>
<path d="M692 2368 c2 -25 8 -34 26 -36 17 -3 22 1 22 20 0 27 -17 48 -38 48
-9 0 -12 -10 -10 -32z"/>
<path d="M798 2354 c-9 -9 3 -42 17 -48 16 -6 27 18 19 39 -6 15 -26 20 -36 9z"/>
<path d="M732 2254 c1 -9 9 -19 16 -22 9 -3 13 2 10 14 -1 9 -9 19 -16 22 -9
3 -13 -2 -10 -14z"/>
<path d="M676 2181 c-9 -13 3 -39 20 -45 20 -8 29 20 14 39 -14 17 -26 19 -34
6z"/>
<path d="M835 2120 c-7 -12 2 -30 16 -30 12 0 12 27 0 35 -5 3 -12 1 -16 -5z"/>
<path d="M700 2047 c0 -27 12 -47 27 -47 21 0 13 54 -9 58 -11 2 -18 -3 -18
-11z"/>
<path d="M816 2002 c-3 -6 -1 -14 5 -17 15 -10 25 3 12 16 -7 7 -13 7 -17 1z"/>
<path d="M714 1905 c-7 -18 3 -35 21 -35 21 0 28 19 15 35 -16 19 -29 19 -36
0z"/>
<path d="M740 1806 c0 -10 9 -16 21 -16 24 0 21 23 -4 28 -10 2 -17 -3 -17
-12z"/>
<path d="M1026 1483 c-11 -11 -6 -23 9 -23 8 0 15 4 15 9 0 13 -16 22 -24 14z"/>
<path d="M1146 1414 c-7 -18 0 -34 15 -34 12 0 12 37 0 44 -5 3 -12 -1 -15
-10z"/>
<path d="M1265 1341 c-3 -5 -1 -12 5 -16 5 -3 10 1 10 9 0 18 -6 21 -15 7z"/>
<path d="M2760 4289 l-45 -41 42 32 c38 28 60 50 51 50 -2 0 -23 -18 -48 -41z"/>
<path d="M4652 4280 c0 -8 4 -26 8 -40 6 -20 8 -21 8 -5 0 11 -3 29 -8 40 -5
12 -8 14 -8 5z"/>
<path d="M4673 4120 c0 -47 2 -66 4 -42 2 23 2 61 0 85 -2 23 -4 4 -4 -43z"/>
<path d="M4661 4004 c0 -11 3 -14 6 -6 3 7 2 16 -1 19 -3 4 -6 -2 -5 -13z"/>
<path d="M4651 3964 c0 -11 3 -14 6 -6 3 7 2 16 -1 19 -3 4 -6 -2 -5 -13z"/>
<path d="M4626 3895 c-9 -26 -7 -32 5 -12 6 10 9 21 6 23 -2 3 -7 -2 -11 -11z"/>
<path d="M4596 3823 c-6 -14 -5 -15 5 -6 7 7 10 15 7 18 -3 3 -9 -2 -12 -12z"/>
<path d="M4559 3763 c-13 -16 -12 -17 4 -4 16 13 21 21 13 21 -2 0 -10 -8 -17
-17z"/>
<path d="M4425 3622 c-121 -118 -122 -122 -7 -20 55 49 140 139 130 138 -2 -1
-57 -54 -123 -118z"/>
<path d="M4230 3459 c-110 -84 -118 -92 -37 -37 65 43 122 91 106 87 -2 0 -33
-23 -69 -50z"/>
<path d="M4057 3336 c-59 -41 -73 -55 -29 -30 33 19 91 63 82 63 -3 0 -27 -15
-53 -33z"/>
<path d="M3939 3253 c-13 -16 -12 -17 4 -4 16 13 21 21 13 21 -2 0 -10 -8 -17
-17z"/>
<path d="M3838 3197 c-36 -23 -70 -46 -75 -51 -10 -11 77 38 127 71 59 39 19
23 -52 -20z"/>
<path d="M4296 3049 c-40 -10 -116 -48 -116 -59 0 -3 12 -13 28 -22 30 -18
146 -124 122 -112 -8 5 -61 39 -117 76 -113 76 -158 98 -201 98 -80 0 -64 -95
25 -142 24 -13 43 -29 43 -36 0 -7 -14 -25 -30 -39 -22 -18 -29 -31 -24 -45 3
-10 1 -24 -4 -31 -5 -7 -13 -28 -17 -47 -4 -19 -17 -45 -28 -58 -17 -18 -19
-27 -11 -40 21 -34 98 -77 149 -83 l50 -6 -42 -8 c-38 -7 -42 -10 -37 -31 8
-31 -3 -62 -27 -75 -49 -26 -206 -42 -393 -41 -104 1 -198 4 -210 7 -41 12 12
-22 82 -51 37 -16 89 -41 116 -57 l50 -29 184 37 c276 55 361 57 427 7 l20
-14 -20 8 c-36 16 -147 7 -362 -30 -117 -20 -214 -36 -215 -36 -2 0 -2 -19 0
-43 5 -60 -42 -128 -125 -177 -53 -32 -60 -40 -50 -53 14 -18 85 -39 101 -30
6 4 30 25 53 46 54 51 93 127 94 186 l1 46 13 -30 c27 -58 -15 -168 -89 -231
-22 -19 -33 -34 -25 -35 8 0 23 -2 34 -5 11 -2 79 -9 150 -16 72 -6 134 -15
139 -20 15 -12 -131 -10 -242 4 -53 7 -116 12 -139 13 -22 0 -39 3 -37 6 2 3
-14 11 -34 17 -21 7 -49 23 -62 37 -37 39 -62 33 -103 -27 -20 -29 -53 -75
-72 -103 -72 -100 -295 -486 -295 -509 0 -21 509 -241 652 -281 l53 -15 -49 6
c-124 15 -321 84 -553 194 l-122 58 -31 -66 c-17 -36 -29 -70 -27 -75 3 -10
14 -14 207 -71 218 -65 641 -166 694 -166 21 0 27 7 36 43 6 23 31 102 56 176
52 155 89 218 239 401 174 213 239 332 265 487 13 79 7 104 -74 291 -30 69
-36 96 -36 151 0 75 15 131 35 131 8 0 26 10 42 23 15 13 35 26 45 30 20 7 71
81 86 126 17 49 15 93 -9 156 -22 58 -84 145 -122 169 -30 19 -94 26 -141 15z
m-668 -1805 c10 -10 -160 3 -262 21 -79 14 -176 46 -199 65 -4 4 96 -12 223
-36 128 -23 235 -46 238 -50z"/>
<path d="M3120 2267 c0 -26 10 -42 48 -79 41 -41 147 -106 157 -96 4 4 -190
208 -199 208 -3 0 -6 -15 -6 -33z"/>
</g>
</svg>
